<svg width="368" height="368" viewBox="0 0 368 368" fill="none" xmlns="http://www.w3.org/2000/svg">
    <rect x="10" y="10" width="348" height="348" rx="35" fill="white" stroke="#A692E1" stroke-width="20"/>
    <path d="M53 226C53 193.415 79.4152 167 112 167H204C259.228 167 304 211.772 304 267V323H123C84.3401 323 53 291.66 53 253V226Z"
          fill="#A692E1"/>
    <path d="M84 247.5C131.22 247.5 169.5 209.22 169.5 162V70C169.5 50.3939 153.606 34.5 134 34.5H90C59.3482 34.5 34.5 59.3482 34.5 90V247.5H84Z"
          fill="white" stroke="url(#paint0_linear_7_57)" stroke-width="29" stroke-linejoin="round"/>
    <mask id="path-4-inside-1_7_57" fill="white">
        <path d="M184 267C184 211.772 228.772 167 284 167H348V323C348 336.807 336.807 348 323 348H234C206.386 348 184 325.614 184 298V267Z"/>
    </mask>
    <path d="M184 267C184 211.772 228.772 167 284 167H348V323C348 336.807 336.807 348 323 348H234C206.386 348 184 325.614 184 298V267Z"
          fill="white" stroke="url(#paint1_linear_7_57)" stroke-width="58" stroke-linejoin="round"
          mask="url(#path-4-inside-1_7_57)"/>
    <path d="M133 137C133 192.228 177.772 237 233 237H348V45C348 31.1929 336.807 20 323 20H133V137Z" fill="#E19292"/>
    <path d="M173 115.526C173 157.776 207.25 192.026 249.5 192.026H348V45C348 31.1929 336.807 20 323 20H173V115.526Z"
          fill="#FFB8B8"/>
    <defs>
        <linearGradient id="paint0_linear_7_57" x1="184" y1="287.096" x2="58.9236" y2="217.322"
                        gradientUnits="userSpaceOnUse">
            <stop stop-color="#888888"/>
            <stop offset="1" stop-color="white"/>
        </linearGradient>
        <linearGradient id="paint1_linear_7_57" x1="184" y1="167" x2="274.062" y2="248.603"
                        gradientUnits="userSpaceOnUse">
            <stop stop-color="#888888"/>
            <stop offset="1" stop-color="white"/>
        </linearGradient>
    </defs>
</svg>
